<svg xmlns="http://www.w3.org/2000/svg" viewBox="0 0 256 256" role="img" aria-label="Via Romana Logo">
  <defs>
    <linearGradient id="bg" x1="0" y1="0" x2="0" y2="1">
      <stop offset="0%" stop-color="#2a1406"/>
      <stop offset="100%" stop-color="#120801"/>
    </linearGradient>
    <linearGradient id="gold" x1="0" y1="0" x2="1" y2="1">
      <stop offset="0%" stop-color="#f2d37f"/>
      <stop offset="100%" stop-color="#c9a84c"/>
    </linearGradient>
  </defs>

  <rect x="8" y="8" width="240" height="240" rx="36" fill="url(#bg)"/>
  <rect x="20" y="20" width="216" height="216" rx="28" fill="none" stroke="url(#gold)" stroke-width="8"/>

  <path d="M46 182h164" stroke="#8b1a1a" stroke-width="12" stroke-linecap="round"/>

  <path d="M70 160l20-74h18l20 74h-14l-5-20H88l-5 20H70zm21-32h15l-7-30h-1l-7 30z" fill="url(#gold)"/>
  <path d="M138 160V86h18l30 45V86h14v74h-16l-32-48v48h-14z" fill="url(#gold)"/>

  <circle cx="128" cy="58" r="8" fill="#c9a84c"/>
</svg>
